# xmcd
#
# Track frame offsets: 
#        150
#        14580
#        36198
#        42915
#        59723
#        71016
#        75549
#        90022
#        110023
#        128293
#        133131
#        145542
#        161046
#        166709
#        183434
#        199571
#        202996
#        216458
#
# Disc length: 2945 seconds
#
# Revision: 1
# Processed by: cddbd v1.5.2PL0 Copyright (c) Steve Scherf et al.
# Submitted via: ExactAudioCopy v0.99pb3
#
DISCID=f60b7f12
DTITLE=Handsome Family - Smothered and Covered
DYEAR=2002
DGENRE=Gothic Country
TTITLE0=There's a City
TTITLE1=Sunday Morning Coming Down
TTITLE2=Prepared Piano #1
TTITLE3=I Hear a Sweet Voice Calling
TTITLE4=Down in the Ground [demo]
TTITLE5=Cello #1
TTITLE6=Trail of Time
TTITLE7=Faraway Eyes
TTITLE8=Knoxville Girl
TTITLE9=Prepared Piano #2
TTITLE10=The Last [demo]
TTITLE11=Banks of the Ohio
TTITLE12=Cello #2
TTITLE13=Natalie Wood
TTITLE14=#1 Country Song [demo]
TTITLE15=Prepared Piano #3
TTITLE16=Stupid Bells
TTITLE17=The Weinermobile
EXTD=
EXTT0=
EXTT1=
EXTT2=
EXTT3=
EXTT4=
EXTT5=
EXTT6=
EXTT7=
EXTT8=
EXTT9=
EXTT10=
EXTT11=
EXTT12=
EXTT13=
EXTT14=
EXTT15=
EXTT16=
EXTT17=
PLAYORDER=
